<svg width="318" height="314" viewBox="0 0 318 314" fill="none" xmlns="http://www.w3.org/2000/svg">
<path d="M54.3862 43.1617C116.972 -16.532 215.704 -14.0097 275.111 48.8788C304.73 80.3231 318.954 120.848 317.95 161.036C316.946 201.224 300.714 240.907 269.421 270.838C206.835 330.532 108.103 328.01 48.6966 265.121C44.6804 260.917 40.9989 256.546 37.652 252.174C42.1703 256.714 46.8558 260.917 51.8761 264.785C52.2108 265.121 52.7128 265.458 53.0475 265.794C53.3822 265.962 53.7169 266.298 54.0516 266.466C59.7412 270.838 65.9329 274.538 72.1245 277.733C72.1245 277.733 72.1245 277.733 72.2919 277.733C122.16 303.46 184.579 296.397 227.251 255.705C281.302 204.082 283.311 117.989 231.602 63.3398C215.202 46.0202 195.288 33.9133 174.036 27.1872C174.036 27.1872 173.869 27.1872 173.701 27.1872C129.188 12.2218 78.1489 21.8065 41.8356 56.6138C45.6844 52.0737 49.868 47.5336 54.2189 43.3298" fill="#4FDEDC"/>
<path d="M62.586 68.5525C64.0921 90.5803 65.0962 112.776 65.5982 135.645C71.4552 130.768 76.6428 126.396 81.9977 121.856C78.9856 127.91 74.1326 132.45 69.7817 138.167C88.1894 138.672 106.095 140.017 123.666 142.875C105.76 145.566 88.022 146.911 69.2797 147.415C73.9653 153.637 78.8182 158.85 81.9977 165.239C76.9775 160.699 71.9572 156.159 66.4349 151.115C65.0962 183.232 63.9248 214.844 62.586 246.456C61.582 246.961 61.4146 246.12 61.0799 245.616C59.9085 214.171 58.5698 182.727 57.3984 150.778C51.5414 155.319 46.6885 160.531 40.3295 163.894C44.6804 158.513 49.1986 153.301 54.0516 147.415C35.4766 147.079 17.7383 145.566 0 143.043C17.7383 140.017 35.6439 138.84 54.3862 138.335C49.7007 132.45 45.3498 126.733 40.9989 121.184C47.1905 124.883 52.2108 129.928 58.0678 135.477C58.7371 112.44 59.7412 90.4121 61.2473 68.3843C61.7493 67.8799 62.2513 67.8799 62.586 68.3843" fill="#F4C45B"/>
</svg>
